<svg width="50.00000000000001" height="50.00000000000001" xmlns="http://www.w3.org/2000/svg" fill="none">
 <title>cooler</title>
 <defs>
  <clipPath id="clip0_51_128">
   <rect width="50" height="50" fill="white" id="svg_1"/>
  </clipPath>
 </defs>
 <g>
  <title>Layer 1</title>
  <path id="svg_12" stroke-width="2" fill="none" d="m8.02556,49.04214l33.96858,0c4.02008,0 7.27899,-3.24505 7.27899,-7.24803l0,-33.82416c0,-4.00298 -3.2589,-7.24803 -7.27899,-7.24803l-33.96858,0c-4.02008,0 -7.27899,3.24505 -7.27899,7.24803l0,33.82416c0,4.00299 3.2589,7.24803 7.27899,7.24803z" stroke="#ffffff"/>
  <path fill="none" stroke="#ffffff" stroke-width="2" d="m-33.03105,10.84884l0.745,-1.30375l0.745,1.30375l-1.49,0z" id="svg_11"/>
  <path fill="none" stroke="#ffffff" stroke-width="2" d="m-45.77595,43.27008l0.745,-1.30375l0.745,1.30375l-1.49,0z" id="svg_13"/>
  <path fill="none" stroke="#ffffff" stroke-width="2" d="m-62.54556,32.09034l0.745,-1.30375l0.745,1.30375l-1.49,0z" id="svg_14"/>
  <path id="svg_4" d="m10.9791,-16.47771c0.09931,-0.11418 0.11928,-0.27001 0.06525,-0.40105l-0.19938,0.23251l-0.19654,-0.03821l-0.06512,-0.18933l0.19888,-0.23197c-0.1368,-0.03442 -0.28751,0.00713 -0.38639,0.12087c-0.10428,0.1199 -0.12134,0.28594 -0.0568,0.42066l-0.51971,0.59764c-0.0553,0.06354 -0.04856,0.15991 0.01498,0.21519c0.06354,0.05524 0.15989,0.04856 0.21517,-0.01498l0.5191,-0.59705c0.14289,0.04606 0.30581,0.00618 0.41057,-0.11427l0,0l-0.00001,-0.00001z" stroke-width="2" stroke="#ffffff" fill="none"/>
  <line fill="none" x1="11.85732" y1="7.55248" x2="11.68593" y2="42.50735" id="svg_3" stroke="#ffffff" stroke-width="3"/>
  <line fill="none" stroke="#ffffff" x1="7.06166" y1="37.87902" x2="42.85113" y2="37.87902" id="svg_5" stroke-width="3"/>
  <path fill="none" stroke="#ffffff" opacity="undefined" d="m11.82081,22.16763l9.01734,-6.24277" id="svg_6" stroke-width="3"/>
  <line fill="none" stroke="#ffffff" x1="19.18208" y1="16.04046" x2="29.70231" y2="28.2948" id="svg_7" stroke-width="3"/>
  <line stroke="#ffffff" fill="none" x1="36.05009" y1="21.28324" x2="27.87957" y2="28.06358" id="svg_8" stroke-width="3"/>
  <line stroke="#ffffff" fill="none" x1="34.39402" y1="20.94991" x2="42.60694" y2="28.35645" id="svg_9" stroke-width="3"/>
  <path d="m-81,7.16667c0.33334,0 0.69766,-0.11542 1,-0.33333c1.33848,-0.96472 2.22784,-2.27635 3,-3.16667c0.54601,-0.62954 1.42486,-0.99253 2,-1.16667c0.95709,-0.28978 1.5,-0.16667 2.16666,-0.16667c0.5,0 0.66667,0 0.83334,0c0.33334,0 0.77161,-0.22919 1.33334,0.16667c0.4912,0.34616 0.83649,1.33057 2,2.66667c2.17258,2.49486 3.15887,3.51199 3.66666,3.83333c0.82121,0.51968 1.18884,0.76159 1.83333,1c0.69906,0.2586 1.47258,0.499 3,0.66667c1.32537,0.14549 2.36057,0.26809 3.66667,0c1.24337,-0.25521 1.71558,-1.1469 2.16667,-2.33333c0.3746,-0.98528 0.5,-1.5 0.66666,-2.16667l0.16667,-0.16667" id="svg_2" stroke-width="2" stroke="#ffffff" fill="none"/>
 </g>
</svg>