<?xml version="1.0" encoding="UTF-8" standalone="no"?>
<!-- Created with Inkscape (http://www.inkscape.org/) -->

<svg
   width="40.399384mm"
   height="17.422569mm"
   viewBox="0 0 40.399384 17.422569"
   version="1.1"
   id="svg1"
   xml:space="preserve"
   xmlns:inkscape="http://www.inkscape.org/namespaces/inkscape"
   xmlns:sodipodi="http://sodipodi.sourceforge.net/DTD/sodipodi-0.dtd"
   xmlns="http://www.w3.org/2000/svg"
   xmlns:svg="http://www.w3.org/2000/svg"><sodipodi:namedview
     id="namedview1"
     pagecolor="#ffffff"
     bordercolor="#000000"
     borderopacity="0.25"
     inkscape:showpageshadow="2"
     inkscape:pageopacity="0.0"
     inkscape:pagecheckerboard="0"
     inkscape:deskcolor="#d1d1d1"
     inkscape:document-units="mm" /><defs
     id="defs1" /><g
     inkscape:label="Слой 1"
     inkscape:groupmode="layer"
     id="layer1"
     transform="translate(-25.99063,-24.540813)"><g
       id="g16"><g
         id="g12"
         style="fill:#ffd42a;fill-opacity:1"
         transform="matrix(0.86864882,0,0,0.92615938,8.3222724,3.0986021)"><path
           d="m 30.161774,23.152075 a 5.7060661,9.4250803 0 0 1 0.0798,0.0047 5.7060661,9.4250803 0 0 1 0.404916,0.07235 5.7060661,9.4250803 0 0 1 0.400879,0.119373 5.7060661,9.4250803 0 0 1 0.394668,0.166398 5.7060661,9.4250803 0 0 1 0.386595,0.21239 5.7060661,9.4250803 0 0 1 0.376347,0.257349 5.7060661,9.4250803 0 0 1 0.364238,0.301273 5.7060661,9.4250803 0 0 1 0.350264,0.343132 5.7060661,9.4250803 0 0 1 0.334428,0.383956 5.7060661,9.4250803 0 0 1 0.317349,0.422196 5.7060661,9.4250803 0 0 1 0.298098,0.45837 5.7060661,9.4250803 0 0 1 0.277603,0.492476 5.7060661,9.4250803 0 0 1 0.255556,0.523999 5.7060661,9.4250803 0 0 1 0.232267,0.552421 5.7060661,9.4250803 0 0 1 0.207737,0.578776 5.7060661,9.4250803 0 0 1 0.182274,0.601514 5.7060661,9.4250803 0 0 1 0.15588,0.621668 5.7060661,9.4250803 0 0 1 0.128865,0.638204 5.7060661,9.4250803 0 0 1 0.100608,0.652156 5.7060661,9.4250803 0 0 1 0.07235,0.661975 5.7060661,9.4250803 0 0 1 0.04347,0.668693 5.7060661,9.4250803 0 0 1 0.0146,0.672827 5.7060661,9.4250803 0 0 1 -0.109612,1.838648 5.7060661,9.4250803 0 0 1 -0.324802,1.767851 5.7060661,9.4250803 0 0 1 -0.52726,1.629358 5.7060661,9.4250803 0 0 1 -0.709533,1.428336 5.7060661,9.4250803 0 0 1 -0.864793,1.172022 5.7060661,9.4250803 0 0 1 -0.986515,0.871264 5.7060661,9.4250803 0 0 1 -1.070356,0.536402 5.7060661,9.4250803 0 0 1 -0.992415,0.16123 H 58.038835 V 23.152075 Z"
           style="fill:#ffd42a;fill-opacity:1;stroke-width:0.205097"
           id="path7" /><path
           d="m 29.12122,23.194967 a 9.4960413,9.4250803 0 0 1 0.437183,-0.04289 H 29.12122 Z"
           style="fill:#ffd42a;fill-opacity:1;stroke-width:0.255222"
           id="path12" /><path
           d="M 29.205138,41.962296 V 23.151751 a 9.498256,9.4676393 0 0 0 -1.219848,0.119391 9.498256,9.4676393 0 0 0 -1.781703,0.538825 9.498256,9.4676393 0 0 0 -1.642142,0.875198 9.498256,9.4676393 0 0 0 -1.439524,1.177314 9.498256,9.4676393 0 0 0 -1.181083,1.434788 9.498256,9.4676393 0 0 0 -0.87767,1.636714 9.498256,9.4676393 0 0 0 -0.540662,1.775833 9.498256,9.4676393 0 0 0 -0.18246,1.847469 9.498256,9.4676393 0 0 0 0.18246,1.84695 9.498256,9.4676393 0 0 0 0.540662,1.775833 9.498256,9.4676393 0 0 0 0.87767,1.636717 9.498256,9.4676393 0 0 0 1.181083,1.434785 9.498256,9.4676393 0 0 0 1.439524,1.177314 9.498256,9.4676393 0 0 0 1.642142,0.875199 9.498256,9.4676393 0 0 0 1.781703,0.538824 9.498256,9.4676393 0 0 0 1.219848,0.119391 z"
           style="fill:#ffd42a;fill-opacity:1;stroke-width:0.255826"
           id="path11" /><path
           d="M 57.983259,41.962633 V 23.152088 a 9.498256,9.4676393 0 0 1 1.219848,0.119391 9.498256,9.4676393 0 0 1 1.781703,0.538825 9.498256,9.4676393 0 0 1 1.642142,0.875198 9.498256,9.4676393 0 0 1 1.439524,1.177314 9.498256,9.4676393 0 0 1 1.181083,1.434788 9.498256,9.4676393 0 0 1 0.87767,1.636714 9.498256,9.4676393 0 0 1 0.540662,1.775833 9.498256,9.4676393 0 0 1 0.18246,1.847469 9.498256,9.4676393 0 0 1 -0.18246,1.84695 9.498256,9.4676393 0 0 1 -0.540662,1.775833 9.498256,9.4676393 0 0 1 -0.87767,1.636717 9.498256,9.4676393 0 0 1 -1.181083,1.434785 9.498256,9.4676393 0 0 1 -1.439524,1.177314 9.498256,9.4676393 0 0 1 -1.642142,0.875199 9.498256,9.4676393 0 0 1 -1.781703,0.538824 9.498256,9.4676393 0 0 1 -1.219848,0.119391 z"
           style="fill:#ffd42a;fill-opacity:1;stroke-width:0.255826"
           id="path11-9" /><path
           d="M 29.553235,41.962296 A 9.4960413,9.1951749 0 0 1 29.12122,41.92096 v 0.04134 z"
           style="fill:#ffd42a;fill-opacity:1;stroke-width:0.25209"
           id="path10" /><path
           d="m 30.298926,23.152075 h -0.740523 a 9.4960413,9.4250803 0 0 0 -0.437183,0.04289 v 18.725988 a 9.4960413,9.4250803 0 0 0 0.432015,0.04237 h 0.402043 a 9.4960413,9.4250803 0 0 0 1.651578,-0.16123 9.4960413,9.4250803 0 0 0 1.781287,-0.536402 9.4960413,9.4250803 0 0 0 1.64176,-0.871264 9.4960413,9.4250803 0 0 0 1.439189,-1.172022 9.4960413,9.4250803 0 0 0 1.180806,-1.428336 9.4960413,9.4250803 0 0 0 0.877466,-1.629358 9.4960413,9.4250803 0 0 0 0.540536,-1.767851 9.4960413,9.4250803 0 0 0 0.182417,-1.838648 9.4960413,9.4250803 0 0 0 -0.02429,-0.672827 9.4960413,9.4250803 0 0 0 -0.07235,-0.668693 9.4960413,9.4250803 0 0 0 -0.120406,-0.661975 9.4960413,9.4250803 0 0 0 -0.167431,-0.652156 9.4960413,9.4250803 0 0 0 -0.214457,-0.638204 9.4960413,9.4250803 0 0 0 -0.259416,-0.621668 9.4960413,9.4250803 0 0 0 -0.303341,-0.601514 9.4960413,9.4250803 0 0 0 -0.345715,-0.578776 9.4960413,9.4250803 0 0 0 -0.38654,-0.552421 9.4960413,9.4250803 0 0 0 -0.425297,-0.523999 9.4960413,9.4250803 0 0 0 -0.461987,-0.492476 9.4960413,9.4250803 0 0 0 -0.496094,-0.45837 9.4960413,9.4250803 0 0 0 -0.528133,-0.422196 9.4960413,9.4250803 0 0 0 -0.556555,-0.383956 9.4960413,9.4250803 0 0 0 -0.58291,-0.343132 9.4960413,9.4250803 0 0 0 -0.606165,-0.301273 9.4960413,9.4250803 0 0 0 -0.626318,-0.257349 9.4960413,9.4250803 0 0 0 -0.643372,-0.21239 9.4960413,9.4250803 0 0 0 -0.656807,-0.166398 9.4960413,9.4250803 0 0 0 -0.667143,-0.119373 9.4960413,9.4250803 0 0 0 -0.673861,-0.07235 9.4960413,9.4250803 0 0 0 -0.132808,-0.0047 z"
           style="fill:#ffd42a;fill-opacity:1;stroke-width:0.255222"
           id="path8" /></g><ellipse
         style="fill:#ffffff;stroke-width:0.373599"
         id="path13"
         cx="57.249214"
         cy="33.252098"
         rx="7.0445313"
         ry="7.0114584" /><g
         style="fill:none;stroke:#ffffff"
         id="g14"
         transform="matrix(0.46146404,0,0,0.44438016,30.186751,27.919536)"><g
           id="SVGRepo_bgCarrier"
           stroke-width="0" /><g
           id="SVGRepo_tracerCarrier"
           stroke-linecap="round"
           stroke-linejoin="round" /><g
           id="SVGRepo_iconCarrier"><circle
             cx="12"
             cy="12"
             r="5"
             stroke="#ffffff"
             stroke-width="1.5"
             id="circle1" /><path
             d="M 12,2 V 4"
             stroke="#ffffff"
             stroke-width="1.5"
             stroke-linecap="round"
             id="path1" /><path
             d="m 12,20 v 2"
             stroke="#ffffff"
             stroke-width="1.5"
             stroke-linecap="round"
             id="path2" /><path
             d="M 4,12 H 2"
             stroke="#ffffff"
             stroke-width="1.5"
             stroke-linecap="round"
             id="path3" /><path
             d="M 22,12 H 20"
             stroke="#ffffff"
             stroke-width="1.5"
             stroke-linecap="round"
             id="path4" /><path
             d="m 19.7778,4.22266 -2.222,2.03158"
             stroke="#ffffff"
             stroke-width="1.5"
             stroke-linecap="round"
             id="path5" /><path
             d="M 4.22217,4.22266 6.44418,6.25424"
             stroke="#ffffff"
             stroke-width="1.5"
             stroke-linecap="round"
             id="path6" /><path
             d="M 6.44434,17.5557 4.22211,19.7779"
             stroke="#ffffff"
             stroke-width="1.5"
             stroke-linecap="round"
             id="path7-3" /><path
             d="m 19.7778,19.7773 -2.222,-2.2222"
             stroke="#ffffff"
             stroke-width="1.5"
             stroke-linecap="round"
             id="path8-6" /></g></g></g></g></svg>
