<?xml version="1.0" encoding="UTF-8" standalone="no"?>
<!-- Created with Inkscape (http://www.inkscape.org/) -->

<svg
   width="43.954922mm"
   height="19.538883mm"
   viewBox="0 0 43.954922 19.538883"
   version="1.1"
   id="svg1"
   xml:space="preserve"
   xmlns:inkscape="http://www.inkscape.org/namespaces/inkscape"
   xmlns:sodipodi="http://sodipodi.sourceforge.net/DTD/sodipodi-0.dtd"
   xmlns="http://www.w3.org/2000/svg"
   xmlns:svg="http://www.w3.org/2000/svg"><sodipodi:namedview
     id="namedview1"
     pagecolor="#9f9f9f"
     bordercolor="#000000"
     borderopacity="0.25"
     inkscape:showpageshadow="2"
     inkscape:pageopacity="0.0"
     inkscape:pagecheckerboard="0"
     inkscape:deskcolor="#d1d1d1"
     inkscape:document-units="mm" /><defs
     id="defs1" /><g
     inkscape:label="Слой 1"
     inkscape:groupmode="layer"
     id="layer1"
     transform="translate(-72.231249,-26.729118)"><g
       id="g29"><path
         d="m 107.90036,26.774159 a 8.9780292,9.7896273 0 0 0 -0.41334,-0.04455 h 0.41334 z"
         style="fill:#008080;fill-opacity:0.18806;stroke:none;stroke-width:0.252916"
         id="path12-8" /><g
         id="g23"
         style="fill:#ffffff;fill-opacity:0.152239;stroke:none"
         transform="matrix(-0.94544968,0,0,1.0386784,135.43301,2.682048)"><path
           id="path11-6"
           style="fill:#ffffff;fill-opacity:0.152239;stroke:none;stroke-width:0.255826"
           d="m 58.009058,23.151603 v 0.003 a 9.498256,9.4676393 0 0 1 1.194279,0.116917 9.498256,9.4676393 0 0 1 1.781305,0.538816 9.498256,9.4676393 0 0 1 1.642475,0.875139 9.498256,9.4676393 0 0 1 1.439146,1.177135 9.498256,9.4676393 0 0 1 1.18116,1.43485 9.498256,9.4676393 0 0 1 0.877809,1.636845 9.498256,9.4676393 0 0 1 0.540568,1.775652 9.498256,9.4676393 0 0 1 0.182558,1.847793 9.498256,9.4676393 0 0 1 -0.182558,1.846798 9.498256,9.4676393 0 0 1 -0.540568,1.775652 9.498256,9.4676393 0 0 1 -0.877809,1.636845 9.498256,9.4676393 0 0 1 -1.18116,1.43485 9.498256,9.4676393 0 0 1 -1.439146,1.177135 9.498256,9.4676393 0 0 1 -1.642475,0.875637 9.498256,9.4676393 0 0 1 -1.781305,0.538815 9.498256,9.4676393 0 0 1 -1.194279,0.116918 v 0.002 h -0.02077 a 9.498256,9.4676393 0 0 1 -0.0049,4.97e-4 V 41.9624 h -28.760517 -0.02077 v -0.002 A 9.498256,9.4676393 0 0 1 28.002903,41.842985 9.498256,9.4676393 0 0 1 26.221051,41.304169 9.498256,9.4676393 0 0 1 24.579123,40.42903 9.498256,9.4676393 0 0 1 23.13943,39.251398 9.498256,9.4676393 0 0 1 21.95827,37.817045 9.498256,9.4676393 0 0 1 21.080462,36.1802 a 9.498256,9.4676393 0 0 1 -0.540569,-1.77615 9.498256,9.4676393 0 0 1 -0.182557,-1.846797 9.498256,9.4676393 0 0 1 0.182557,-1.847296 9.498256,9.4676393 0 0 1 0.540569,-1.77615 9.498256,9.4676393 0 0 1 0.877808,-1.636347 9.498256,9.4676393 0 0 1 1.18116,-1.43485 9.498256,9.4676393 0 0 1 1.439693,-1.177632 9.498256,9.4676393 0 0 1 1.641928,-0.87514 9.498256,9.4676393 0 0 1 1.781852,-0.538815 9.498256,9.4676393 0 0 1 1.199198,-0.117415 v -0.002 h 0.02077 z" /></g><ellipse
         style="fill:#ffffff;fill-opacity:1;stroke-width:0.376005"
         id="path13-8"
         cx="-82.749336"
         cy="36.49889"
         rx="7.1355715"
         ry="7.0114584"
         transform="scale(-1,1)" /><g
         style="fill:none;stroke:#008080;stroke-opacity:1"
         id="g15"
         transform="matrix(0.635135,0,0,0.58843998,94.650752,61.787246)"><g
           id="SVGRepo_bgCarrier-9"
           stroke-width="0"
           style="stroke:#008080;stroke-opacity:1" /><g
           id="SVGRepo_tracerCarrier-4"
           stroke-linecap="round"
           stroke-linejoin="round"
           style="stroke:#008080;stroke-opacity:1" /><g
           id="SVGRepo_iconCarrier-89"
           style="stroke:#ec6b00;stroke-opacity:1"><path
             d="m 5.4538923,-43.426629 c 0,6.940343 5.2493327,12.566508 11.7246927,12.566508 4.933757,0 9.155693,-3.266175 10.88639,-7.891069 -1.350426,0.58169 -2.82813,0.909536 -4.372664,0.909536 -6.475425,0 -11.724693,-5.626165 -11.724693,-12.56648 0,-1.647665 0.301377,-3.240526 0.839254,-4.682365 -4.3101058,1.857498 -7.3529797,6.37982 -7.3529797,11.66387 z"
             stroke="#ffffff"
             stroke-width="2.6974"
             stroke-linecap="round"
             stroke-linejoin="round"
             id="path1-0"
             style="stroke:#ec6b00;stroke-opacity:1" /></g></g></g></g></svg>
