<?xml version="1.0" encoding="UTF-8" standalone="no"?>
<svg
   data-name="Layer 2"
   id="Layer_2"
   viewBox="0 0 957.54193 832"
   version="1.1"
   sodipodi:docname="3643769-building-home-house-main-menu-start_113416.svg"
   width="957.54193"
   height="832"
   xmlns:inkscape="http://www.inkscape.org/namespaces/inkscape"
   xmlns:sodipodi="http://sodipodi.sourceforge.net/DTD/sodipodi-0.dtd"
   xmlns="http://www.w3.org/2000/svg"
   xmlns:svg="http://www.w3.org/2000/svg">
  <sodipodi:namedview
     id="namedview3"
     pagecolor="#ffffff"
     bordercolor="#000000"
     borderopacity="0.25"
     inkscape:showpageshadow="2"
     inkscape:pageopacity="0.0"
     inkscape:pagecheckerboard="0"
     inkscape:deskcolor="#d1d1d1" />
  <defs
     id="defs1">
    <style
       id="style1">.cls-1{fill:#ffffff;}</style>
  </defs>
  <title
     id="title1" />
  <g
     id="g3"
     transform="translate(-34.253204,-96)">
    <path
       class="cls-1"
       d="M 30,15 A 1,1 0 0 1 29.42,14.81 L 16,5.23 2.58,14.81 A 1,1 0 0 1 1.42,13.19 l 14,-10 a 1,1 0 0 1 1.16,0 l 14,10 A 1,1 0 0 1 30,15 Z"
       id="path1"
       style="fill:#ed6b06;fill-opacity:1" />
    <path
       class="cls-1"
       d="M 5,9 A 1,1 0 0 1 4,8 V 4 A 1,1 0 0 1 5,3 H 9 A 1,1 0 0 1 9,5 H 6 V 8 A 1,1 0 0 1 5,9 Z"
       id="path2"
       style="fill:#ed6b06;fill-opacity:1" />
    <path
       class="cls-1"
       d="m 25,29 h -5 a 1,1 0 0 1 -1,-1 v -7 h -6 v 7 a 1,1 0 0 1 -1,1 H 7 A 3,3 0 0 1 4,26 V 16 a 1,1 0 0 1 2,0 v 10 a 1,1 0 0 0 1,1 h 4 v -7 a 1,1 0 0 1 1,-1 h 8 a 1,1 0 0 1 1,1 v 7 h 4 a 1,1 0 0 0 1,-1 V 16 a 1,1 0 0 1 2,0 v 10 a 3,3 0 0 1 -3,3 z"
       id="path3"
       style="fill:#ed6b06;fill-opacity:1" />
  </g>
</svg>
