<?xml version="1.0" encoding="UTF-8" standalone="no"?>
<!-- Generator: Adobe Illustrator 26.0.1, SVG Export Plug-In . SVG Version: 6.00 Build 0)  -->

<svg
   version="1.1"
   id="Слой_1"
   x="0px"
   y="0px"
   viewBox="0 0 130838.7 6101.7599"
   xml:space="preserve"
   sodipodi:docname="NEVATOM.svg"
   width="130838.7"
   height="6101.7598"
   xmlns:inkscape="http://www.inkscape.org/namespaces/inkscape"
   xmlns:sodipodi="http://sodipodi.sourceforge.net/DTD/sodipodi-0.dtd"
   xmlns="http://www.w3.org/2000/svg"
   xmlns:svg="http://www.w3.org/2000/svg"><defs
   id="defs26" /><sodipodi:namedview
   id="namedview26"
   pagecolor="#1e1717"
   bordercolor="#000000"
   borderopacity="0.25"
   inkscape:showpageshadow="2"
   inkscape:pageopacity="0.0"
   inkscape:pagecheckerboard="0"
   inkscape:deskcolor="#d1d1d1" />&#10;<style
   type="text/css"
   id="style1">&#10;	.st0{fill:#ED6B06;}&#10;	.st1{fill:#00692F;}&#10;	.st2{fill:#009453;}&#10;</style>&#10;<g
   id="Layer_1"
   style="fill:#ffffff"
   transform="translate(-8866.5,-1173.76)">&#10;	<g
   id="g26"
   style="fill:#ffffff">&#10;		<polygon
   class="st0"
   points="323.3,13.2 279.2,13.1 323.3,51.4 "
   id="polygon1"
   style="fill:#ffffff" />&#10;		<polygon
   class="st1"
   points="290.1,39.1 290.1,78.2 335.2,78.2 "
   id="polygon2"
   style="fill:#ffffff" />&#10;		<path
   class="st2"
   d="m 86.2,40.3 c -3,0 -5,1.5 -5.3,4 h 10.6 c -0.3,-2.5 -2.3,-4 -5.3,-4 z"
   id="path2"
   style="fill:#ffffff" />&#10;		<rect
   x="339.39999"
   y="23.1"
   class="st2"
   width="23"
   height="45.200001"
   id="rect2"
   style="fill:#ffffff" />&#10;		<path
   class="st2"
   d="M 273.9,23.1 H 23 V 68.3 H 273.9 Z M 67.7,55.6 H 60 V 44.4 c 0,-2.6 -1.6,-3.7 -3.8,-3.7 -1.9,0 -3.3,0.8 -5.3,3 V 55.5 H 43.2 V 37.1 h 7.7 v 2.6 c 2.4,-2.1 4.8,-3 7.9,-3 3.8,0 8.9,1.6 8.9,7.1 0,0 0,11.8 0,11.8 z m 21.1,-3 c 3.1,0 5.5,-0.7 9.1,-2.6 v 3.6 C 93.5,56 88.9,56 87,56 78.4,56 72.9,52.3 72.9,46.5 c 0,-5.6 5.3,-9.6 12.9,-9.6 7.1,0 13,3.8 12.6,10.5 H 80.9 c 0.1,3.2 3.1,5.2 7.9,5.2 z m 27,3.4 h -4.3 L 100.2,37.3 h 8.2 l 5.2,10.1 5.2,-10.1 h 8.2 z m 39.4,-1.7 c -2.1,1 -5.1,1.7 -7.2,1.7 -2.5,0 -3.8,-0.6 -4.3,-2.1 -3,1.5 -5.4,2.1 -8,2.1 -3.9,0 -6.8,-2.2 -6.8,-4.5 0,-4.4 4.3,-5.3 14.5,-7.7 0.2,-1.7 -0.9,-3.1 -4.2,-3.1 -3.1,0 -6.6,1.2 -9,3.1 v -4.7 c 3.2,-1.5 6.7,-2.2 10.6,-2.2 6.1,0 10.3,1.6 10.3,5.6 v 8.4 c 0,0.9 0.5,1.3 1.3,1.3 0.5,0 1.1,-0.1 2.9,-1 z M 175.9,41.2 H 167 v 7.6 c 0,1.8 1.4,3 3.8,3 1.6,0 3.1,-0.3 5.1,-1.1 v 4.2 c -2.7,0.8 -4.7,1.2 -7.1,1.2 -5.1,0 -9.5,-1.8 -9.5,-6.9 v -7.9 h -3.5 V 40.2 L 166,31.6 h 1 v 5.8 h 8.9 z M 192.5,56 c -8,0 -13.8,-3.8 -13.8,-9.6 0,-6.3 6.6,-9.5 13.8,-9.5 6,0 13.7,2.5 13.7,9.6 0,7.3 -8.3,9.5 -13.7,9.5 z m 63.1,-0.4 h -7.7 V 44.8 c 0,-2.6 -1.7,-4.1 -4.5,-4.1 -2.2,0 -4.3,1.1 -6,3.1 v 11.8 h -7.7 V 44.7 c 0,-3 -2.4,-4 -4.7,-4 -2,0 -4,0.9 -5.9,2.6 v 12.3 h -7.7 V 37.2 h 7.7 v 2.4 c 1.3,-0.9 2.7,-1.6 4.1,-2.1 1.4,-0.5 2.9,-0.6 4.4,-0.6 4.2,0 7.1,1.3 8.8,3.9 3.2,-2.8 6,-3.9 9.6,-3.9 5.6,0 9.5,2.8 9.5,6.9 z"
   id="path3"
   style="fill:#ffffff" />&#10;		<path
   class="st2"
   d="m 136.6,50.6 c 0,1.1 1.1,2 2.5,2 1.4,0 3,-0.5 4.2,-1.4 v -4.4 c -4.5,1.2 -6.7,2 -6.7,3.8 z"
   id="path4"
   style="fill:#ffffff" />&#10;		<path
   class="st2"
   d="m 192.5,40.3 c -3.3,0 -5.6,2 -5.6,6.1 0,4.7 2.7,6.1 5.6,6.1 3.6,0 5.5,-2.2 5.5,-6.3 0,-3.5 -1.7,-5.9 -5.5,-5.9 z"
   id="path5"
   style="fill:#ffffff" />&#10;		<path
   class="st1"
   d="m 23.9,73.9 c 0.8,0 1.3,0.1 1.7,0.5 0.3,0.3 0.5,0.7 0.5,1.2 0,0.2 0,0.5 -0.2,0.7 -0.1,0.2 -0.3,0.4 -0.5,0.4 0.1,0 0.5,0.1 0.8,0.4 0.3,0.3 0.4,0.8 0.4,1.1 0,0.4 -0.1,0.8 -0.4,1.1 -0.5,0.5 -1.2,0.6 -1.7,0.6 H 23 v -6 z m 0,2.6 h 0.3 c 0.2,0 0.5,0 0.7,-0.2 0.2,-0.2 0.2,-0.5 0.2,-0.7 0,-0.2 0,-0.4 -0.2,-0.6 -0.2,-0.2 -0.5,-0.2 -0.7,-0.2 h -0.3 z m 0,2.6 h 0.6 c 0.3,0 0.7,0 0.9,-0.2 0.2,-0.1 0.3,-0.4 0.3,-0.7 0,-0.2 -0.1,-0.5 -0.2,-0.6 -0.3,-0.2 -0.6,-0.3 -0.9,-0.3 H 24 Z"
   id="path6"
   style="fill:#ffffff" />&#10;		<path
   class="st1"
   d="m 37.1,74.8 h -2.4 v 1.5 H 37 v 0.9 h -2.3 v 1.9 h 2.4 V 80 h -3.3 v -6 h 3.3 z"
   id="path7"
   style="fill:#ffffff" />&#10;		<path
   class="st1"
   d="m 45.3,76.3 h 2.6 v -2.4 h 0.9 v 6 h -0.9 v -2.8 h -2.6 v 2.8 h -0.9 v -6 h 0.9 z"
   id="path8"
   style="fill:#ffffff" />&#10;		<path
   class="st1"
   d="m 58,74.8 v 5.1 h -0.9 v -5.1 h -1.4 v -0.9 h 3.7 v 0.9 z"
   id="path9"
   style="fill:#ffffff" />&#10;		<path
   class="st1"
   d="m 70.3,75.9 -4.1,4.3 v -6.3 h 0.9 V 78 l 4.1,-4.3 V 80 h -0.9 z"
   id="path10"
   style="fill:#ffffff" />&#10;		<path
   class="st1"
   d="m 83.1,73.9 v 6 h -0.9 v -5.1 h -2 v 3 c 0,0.7 0,1.4 -0.6,1.8 -0.3,0.3 -0.7,0.4 -1.1,0.4 -0.2,0 -0.3,0 -0.4,-0.1 v -0.8 c 0.1,0 0.2,0.1 0.3,0.1 0.2,0 0.4,-0.1 0.5,-0.2 0.3,-0.3 0.3,-0.9 0.3,-1.4 V 74 l 3.9,-0.1 c 0,0.1 0,0 0,0 z"
   id="path11"
   style="fill:#ffffff" />&#10;		<path
   class="st1"
   d="m 91.9,77.4 c -0.3,0 -0.7,-0.2 -0.9,-0.4 -0.4,-0.4 -0.5,-0.8 -0.5,-1.3 0,-0.4 0.1,-0.9 0.5,-1.3 0.5,-0.6 1.2,-0.6 1.6,-0.6 H 94 v 6 h -0.9 v -2.4 h -0.2 l -1.6,2.4 h -1.1 z m 0.8,-2.6 c -0.4,0 -0.8,0 -1,0.3 -0.2,0.2 -0.3,0.4 -0.3,0.7 0,0.4 0.2,0.6 0.3,0.7 0.2,0.2 0.6,0.2 0.9,0.2 h 0.5 v -1.9 z"
   id="path12"
   style="fill:#ffffff" />&#10;		<path
   class="st1"
   d="m 101.5,73.9 h 0.9 V 79 h 2.5 v -5.1 h 0.9 V 79 h 0.8 v 2.2 h -0.9 v -1.4 h -4.2 z"
   id="path13"
   style="fill:#ffffff" />&#10;		<path
   class="st1"
   d="m 117.6,75.9 -4.1,4.3 v -6.3 h 0.9 V 78 l 4.1,-4.3 V 80 h -0.9 z"
   id="path14"
   style="fill:#ffffff" />&#10;		<path
   class="st1"
   d="m 132,76.9 c 0,1.8 -1.3,3.1 -3.1,3.1 -1.8,0 -3.1,-1.4 -3.1,-3.1 0,-1.8 1.3,-3.1 3.1,-3.1 1.8,0 3.1,1.4 3.1,3.1 z m -0.9,0 c 0,-1.3 -0.9,-2.3 -2.2,-2.3 -1.3,0 -2.2,0.9 -2.2,2.3 0,1.3 0.9,2.3 2.2,2.3 1.3,0 2.2,-0.9 2.2,-2.3 z"
   id="path15"
   style="fill:#ffffff" />&#10;		<path
   class="st1"
   d="m 140.1,76.3 h 2.6 v -2.4 h 0.9 v 6 h -0.9 v -2.8 h -2.6 v 2.8 h -0.9 v -6 h 0.9 z"
   id="path16"
   style="fill:#ffffff" />&#10;		<path
   class="st1"
   d="m 152.1,76.3 h 2.6 v -2.4 h 0.9 v 6 h -0.9 v -2.8 h -2.6 v 2.8 h -0.9 v -6 h 0.9 z"
   id="path17"
   style="fill:#ffffff" />&#10;		<path
   class="st1"
   d="m 163.1,73.9 h 0.9 v 2.4 h 0.7 c 0.4,0 1,0.1 1.5,0.5 0.3,0.3 0.6,0.8 0.6,1.3 0,0.5 -0.2,1.1 -0.7,1.5 -0.4,0.3 -0.9,0.3 -1.3,0.3 h -1.6 z m 0.9,5.2 h 0.6 c 0.2,0 1.2,0 1.2,-0.9 0,-0.4 -0.2,-0.9 -1.2,-0.9 H 164 Z m 4.3,-5.2 v 6 h -0.9 v -6 z"
   id="path18"
   style="fill:#ffffff" />&#10;		<path
   class="st1"
   d="m 179.1,74.8 h -2.4 v 1.5 h 2.3 v 0.9 h -2.3 v 1.9 h 2.4 V 80 h -3.3 v -6 h 3.3 z"
   id="path19"
   style="fill:#ffffff" />&#10;		<path
   class="st1"
   d="m 202.4,75.3 c -0.7,-0.6 -1.3,-0.7 -1.6,-0.7 -1.3,0 -2.2,1 -2.2,2.3 0,1.3 0.9,2.3 2.2,2.3 0.7,0 1.3,-0.4 1.6,-0.7 v 1.1 c -0.6,0.4 -1.2,0.5 -1.6,0.5 -1.1,0 -1.8,-0.5 -2.1,-0.8 -0.7,-0.7 -1,-1.4 -1,-2.3 0,-1.1 0.5,-1.9 1,-2.3 0.6,-0.6 1.3,-0.8 2.2,-0.8 0.5,0 1.1,0.1 1.6,0.4 z"
   id="path20"
   style="fill:#ffffff" />&#10;		<path
   class="st1"
   d="m 213.6,75.9 -4.1,4.3 v -6.3 h 0.9 V 78 l 4.1,-4.3 V 80 h -0.9 z"
   id="path21"
   style="fill:#ffffff" />&#10;		<path
   class="st1"
   d="m 226.5,75.3 c -0.7,-0.6 -1.3,-0.7 -1.6,-0.7 -1.3,0 -2.2,1 -2.2,2.3 0,1.3 0.9,2.3 2.2,2.3 0.7,0 1.3,-0.4 1.6,-0.7 v 1.1 c -0.6,0.4 -1.2,0.5 -1.6,0.5 -1.1,0 -1.8,-0.5 -2.1,-0.8 -0.7,-0.7 -1,-1.4 -1,-2.3 0,-1.1 0.5,-1.9 1,-2.3 0.6,-0.6 1.3,-0.8 2.2,-0.8 0.5,0 1.1,0.1 1.6,0.4 z"
   id="path22"
   style="fill:#ffffff" />&#10;		<path
   class="st1"
   d="m 235.4,74.8 v 5.1 h -0.9 v -5.1 h -1.4 v -0.9 h 3.7 v 0.9 z"
   id="path23"
   style="fill:#ffffff" />&#10;		<path
   class="st1"
   d="m 247,74.8 h -2.4 v 1.5 h 2.3 v 0.9 h -2.3 v 1.9 H 247 V 80 h -3.3 v -6 h 3.3 z"
   id="path24"
   style="fill:#ffffff" />&#10;		<path
   class="st1"
   d="m 254,79.9 1.3,-6.5 2.1,4.7 2.1,-4.7 1.1,6.5 h -0.9 l -0.6,-3.6 -1.7,3.9 -1.7,-3.9 -0.6,3.6 z"
   id="path25"
   style="fill:#ffffff" />&#10;		<path
   class="st1"
   d="m 268,73.9 h 0.9 v 2.4 h 0.7 c 0.4,0 1,0.1 1.5,0.5 0.3,0.3 0.6,0.8 0.6,1.3 0,0.5 -0.2,1.1 -0.7,1.5 -0.4,0.3 -0.9,0.3 -1.3,0.3 H 268 Z m 0.9,5.2 h 0.6 c 0.2,0 1.2,0 1.2,-0.9 0,-0.4 -0.2,-0.9 -1.2,-0.9 h -0.7 v 1.8 z m 4.3,-5.2 v 6 h -0.9 v -6 z"
   id="path26"
   style="fill:#ffffff" />&#10;	</g>&#10;</g>&#10;<g
   id="BW"
   transform="translate(-8866.5,-1173.76)">&#10;</g>&#10;</svg>
