<?xml version="1.0" encoding="UTF-8" standalone="no"?>
<!-- Uploaded to: SVG Repo, www.svgrepo.com, Transformed by: SVG Repo Mixer Tools -->

<svg
   fill="#ffffff"
   height="583.08136"
   width="801.82037"
   version="1.1"
   viewBox="0 0 440.47902 320.31502"
   enable-background="new 0 0 439.479 439.479"
   stroke="#ffffff"
   id="svg2"
   sodipodi:docname="monitoring-svgrepo-com.svg"
   xmlns:inkscape="http://www.inkscape.org/namespaces/inkscape"
   xmlns:sodipodi="http://sodipodi.sourceforge.net/DTD/sodipodi-0.dtd"
   xmlns="http://www.w3.org/2000/svg"
   xmlns:svg="http://www.w3.org/2000/svg">
  <defs
     id="defs2" />
  <sodipodi:namedview
     id="namedview2"
     pagecolor="#ffffff"
     bordercolor="#000000"
     borderopacity="0.25"
     inkscape:showpageshadow="2"
     inkscape:pageopacity="0.0"
     inkscape:pagecheckerboard="0"
     inkscape:deskcolor="#d1d1d1" />
  <g
     id="SVGRepo_iconCarrier"
     style="fill:#ed6b06;fill-opacity:1"
     transform="translate(0.5,-59.582001)">
    <g
       id="g2"
       style="fill:#ed6b06;fill-opacity:1">
      <path
         d="M 407.18,60.082 H 32.298 C 14.488,60.082 0,74.571 0,92.381 v 226.626 c 0,17.81 14.488,32.299 32.298,32.299 H 138.55 l -12.162,13.091 h -18.23 c -4.143,0 -7.5,3.358 -7.5,7.5 0,4.142 3.357,7.5 7.5,7.5 H 331.32 c 4.143,0 7.5,-3.358 7.5,-7.5 0,-4.142 -3.357,-7.5 -7.5,-7.5 H 313.09 L 300.928,351.306 H 407.18 c 17.81,0 32.299,-14.489 32.299,-32.299 V 92.381 c 0,-17.81 -14.49,-32.299 -32.299,-32.299 z M 15,310.504 V 100.884 H 424.479 V 310.505 H 15 Z M 32.298,75.081 H 407.18 c 7.24,0 13.447,4.475 16.021,10.801 H 16.277 C 18.852,79.557 25.058,75.081 32.298,75.081 Z M 292.616,364.395 H 146.862 l 12.162,-13.091 h 121.43 z M 407.18,336.305 H 32.298 c -7.24,0 -13.446,-4.475 -16.021,-10.801 h 406.924 c -2.575,6.325 -8.781,10.801 -16.021,10.801 z"
         id="path1"
         style="fill:#ed6b06;fill-opacity:1" />
      <path
         d="m 374.171,159.137 c -9.064,-9.064 -23.814,-9.065 -32.879,0 -4.392,4.391 -6.811,10.23 -6.811,16.44 0,3.34 0.721,6.562 2.051,9.52 l -59.872,47.207 c -6.806,-3.618 -15.042,-3.618 -21.847,0 L 194.93,185.088 c 3.825,-8.549 2.259,-18.944 -4.748,-25.95 -9.065,-9.064 -23.813,-9.066 -32.88,0 -7.006,7.007 -8.573,17.401 -4.748,25.95 l -59.883,47.216 c -8.789,-4.672 -19.965,-3.317 -27.363,4.08 -9.064,9.065 -9.064,23.814 0,32.879 4.533,4.532 10.486,6.799 16.439,6.799 5.954,0 11.907,-2.266 16.44,-6.799 7.006,-7.007 8.573,-17.401 4.748,-25.95 l 59.883,-47.216 c 3.403,1.809 7.162,2.719 10.923,2.719 3.762,0 7.521,-0.91 10.924,-2.719 l 59.883,47.216 c -3.825,8.549 -2.259,18.944 4.748,25.95 4.533,4.533 10.485,6.798 16.44,6.798 5.952,0 11.907,-2.266 16.439,-6.798 0,0 0,0 10e-4,0 7.006,-7.007 8.572,-17.401 4.747,-25.95 l 59.884,-47.216 c 3.403,1.809 7.162,2.719 10.924,2.719 5.953,0 11.906,-2.266 16.439,-6.799 9.065,-9.065 9.065,-23.815 10e-4,-32.88 z M 87.58,258.656 c -3.214,3.216 -8.449,3.217 -11.665,0 -3.217,-3.217 -3.217,-8.45 0,-11.666 1.607,-1.608 3.72,-2.412 5.832,-2.412 2.113,0 4.226,0.804 5.833,2.412 3.217,3.216 3.217,8.45 0,11.666 z m 80.329,-77.246 c -3.217,-3.217 -3.217,-8.45 0,-11.666 1.607,-1.608 3.72,-2.412 5.832,-2.412 2.113,0 4.226,0.804 5.833,2.412 3.217,3.217 3.217,8.45 0,11.666 -3.213,3.216 -8.448,3.217 -11.665,0 z m 103.661,77.246 c -3.217,3.217 -8.452,3.216 -11.667,0 -3.217,-3.217 -3.217,-8.45 0,-11.666 1.607,-1.608 3.72,-2.412 5.833,-2.412 2.112,0 4.226,0.804 5.833,2.412 3.217,3.216 3.217,8.45 10e-4,11.666 z m 91.993,-77.246 c -3.215,3.216 -8.449,3.216 -11.666,0 -1.559,-1.558 -2.416,-3.629 -2.416,-5.833 0,-2.203 0.857,-4.275 2.417,-5.833 1.607,-1.608 3.72,-2.412 5.833,-2.412 2.112,0 4.225,0.804 5.832,2.412 3.217,3.216 3.217,8.449 0,11.666 z"
         id="path2"
         style="fill:#ed6b06;fill-opacity:1" />
    </g>
  </g>
</svg>
