<?xml version="1.0" encoding="utf-8"?>
<!-- Generator: Adobe Illustrator 26.0.1, SVG Export Plug-In . SVG Version: 6.00 Build 0)  -->
<svg version="1.1" xmlns="http://www.w3.org/2000/svg" xmlns:xlink="http://www.w3.org/1999/xlink" x="0px" y="0px"
	 viewBox="0 0 385.5 89.6" style="enable-background:new 0 0 385.5 89.6;" xml:space="preserve">
<style type="text/css">
	.st0{fill:#FFFFFF;}
	.st1{fill:#ED6C05;}
	.st2{fill:#00692F;}
	.st3{fill:#009453;}
	.st4{display:none;fill:#FFFFFF;}
	.st5{display:none;}
	.st6{display:inline;}
	.st7{fill:#006A43;}
	.st8{fill:#006937;}
	.st9{fill:#919396;}
	.st10{fill:#383738;}
</style>
<g id="Layer_1">
	<rect x="0" y="0" class="st4" width="385.5" height="89.6"/>
	<g>
		<polygon class="st1" points="279.2,13.1 323.3,51.4 323.3,13.1 		"/>
		<polygon class="st0" points="290.1,78.2 335.2,78.2 290.1,39.1 		"/>
		<path class="st0" d="M86.2,40.3c-3,0-5,1.5-5.3,4l10.6,0C91.2,41.8,89.2,40.3,86.2,40.3z"/>
		<rect x="339.4" y="23.1" class="st0" width="23" height="45.2"/>
		<path class="st0" d="M273.9,23.1L23,23.1l0,45.2l250.9,0L273.9,23.1z M67.7,55.6l-7.7,0l0-11.2c0-2.6-1.6-3.7-3.8-3.7
			c-1.9,0-3.3,0.8-5.3,3l0,11.8l-7.7,0l0-18.4l7.7,0l0,2.6c2.4-2.1,4.8-3,7.9-3c3.8,0,8.9,1.6,8.9,7.1L67.7,55.6z M88.8,52.6
			c3.1,0,5.5-0.7,9.1-2.6l0,3.6C93.5,56,88.9,56,87,56c-8.6,0-14.1-3.7-14.1-9.5c0-5.6,5.3-9.6,12.9-9.6c7.1,0,13,3.8,12.6,10.5
			l-17.5,0C81,50.6,84,52.6,88.8,52.6z M115.8,56l-4.3,0l-11.3-18.7l8.2,0l5.2,10.1l5.2-10.1l8.2,0L115.8,56z M155.2,54.3
			c-2.1,1-5.1,1.7-7.2,1.7c-2.5,0-3.8-0.6-4.3-2.1c-3,1.5-5.4,2.1-8,2.1c-3.9,0-6.8-2.2-6.8-4.5c0-4.4,4.3-5.3,14.5-7.7
			c0.2-1.7-0.9-3.1-4.2-3.1c-3.1,0-6.6,1.2-9,3.1l0-4.7c3.2-1.5,6.7-2.2,10.6-2.2c6.1,0,10.3,1.6,10.3,5.6l0,8.4
			c0,0.9,0.5,1.3,1.3,1.3c0.5,0,1.1-0.1,2.9-1L155.2,54.3z M175.9,41.2l-8.9,0l0,7.6c0,1.8,1.4,3,3.8,3c1.6,0,3.1-0.3,5.1-1.1l0,4.2
			c-2.7,0.8-4.7,1.2-7.1,1.2c-5.1,0-9.5-1.8-9.5-6.9v-7.9l-3.5,0l0-1.1l10.2-8.6l1,0l0,5.8l8.9,0L175.9,41.2z M192.5,56
			c-8,0-13.8-3.8-13.8-9.6c0-6.3,6.6-9.5,13.8-9.5c6,0,13.7,2.5,13.7,9.6C206.2,53.8,197.9,56,192.5,56z M255.6,55.6l-7.7,0l0-10.8
			c0-2.6-1.7-4.1-4.5-4.1c-2.2,0-4.3,1.1-6,3.1l0,11.8l-7.7,0l0-10.9c0-3-2.4-4-4.7-4c-2,0-4,0.9-5.9,2.6l0,12.3l-7.7,0l0-18.4
			l7.7,0l0,2.4c1.3-0.9,2.7-1.6,4.1-2.1c1.4-0.5,2.9-0.6,4.4-0.6c4.2,0,7.1,1.3,8.8,3.9c3.2-2.8,6-3.9,9.6-3.9
			c5.6,0,9.5,2.8,9.5,6.9L255.6,55.6z"/>
		<path class="st0" d="M136.6,50.6c0,1.1,1.1,2,2.5,2c1.4,0,3-0.5,4.2-1.4l0-4.4C138.8,48,136.6,48.8,136.6,50.6z"/>
		<path class="st0" d="M192.5,40.3c-3.3,0-5.6,2-5.6,6.1c0,4.7,2.7,6.1,5.6,6.1c3.6,0,5.5-2.2,5.5-6.3
			C198,42.7,196.3,40.3,192.5,40.3z"/>
		<path class="st0" d="M23.9,73.9c0.8,0,1.3,0.1,1.7,0.5c0.3,0.3,0.5,0.7,0.5,1.2c0,0.2,0,0.5-0.2,0.7c-0.1,0.2-0.3,0.4-0.5,0.4
			c0.1,0,0.5,0.1,0.8,0.4c0.3,0.3,0.4,0.8,0.4,1.1c0,0.4-0.1,0.8-0.4,1.1c-0.5,0.5-1.2,0.6-1.7,0.6H23v-6H23.9z M23.9,76.5h0.3
			c0.2,0,0.5,0,0.7-0.2c0.2-0.2,0.2-0.5,0.2-0.7c0-0.2,0-0.4-0.2-0.6c-0.2-0.2-0.5-0.2-0.7-0.2h-0.3V76.5z M23.9,79.1h0.6
			c0.3,0,0.7,0,0.9-0.2c0.2-0.1,0.3-0.4,0.3-0.7c0-0.2-0.1-0.5-0.2-0.6c-0.3-0.2-0.6-0.3-0.9-0.3h-0.6V79.1z"/>
		<path class="st0" d="M37.1,74.8h-2.4v1.5h2.3v0.9h-2.3v1.9h2.4v0.9h-3.3v-6h3.3V74.8z"/>
		<path class="st0" d="M45.3,76.3h2.6v-2.4h0.9v6h-0.9v-2.8h-2.6v2.8h-0.9v-6h0.9V76.3z"/>
		<path class="st0" d="M58,74.8v5.1h-0.9v-5.1h-1.4v-0.9h3.7v0.9H58z"/>
		<path class="st0" d="M70.3,75.9l-4.1,4.3v-6.3h0.9V78l4.1-4.3v6.3h-0.9V75.9z"/>
		<path class="st0" d="M83.1,73.9v6h-0.9v-5.1h-2v3c0,0.7,0,1.4-0.6,1.8c-0.3,0.3-0.7,0.4-1.1,0.4c-0.2,0-0.3,0-0.4-0.1v-0.8
			c0.1,0,0.2,0.1,0.3,0.1c0.2,0,0.4-0.1,0.5-0.2c0.3-0.3,0.3-0.9,0.3-1.4v-3.6H83.1z"/>
		<path class="st0" d="M91.9,77.4c-0.3,0-0.7-0.2-0.9-0.4c-0.4-0.4-0.5-0.8-0.5-1.3c0-0.4,0.1-0.9,0.5-1.3c0.5-0.6,1.2-0.6,1.6-0.6
			H94v6h-0.9v-2.4h-0.2l-1.6,2.4h-1.1L91.9,77.4z M92.7,74.8c-0.4,0-0.8,0-1,0.3c-0.2,0.2-0.3,0.4-0.3,0.7c0,0.4,0.2,0.6,0.3,0.7
			c0.2,0.2,0.6,0.2,0.9,0.2h0.5v-1.9H92.7z"/>
		<path class="st0" d="M101.5,73.9h0.9v5.1h2.5v-5.1h0.9v5.1h0.8v2.2h-0.9v-1.4h-4.2V73.9z"/>
		<path class="st0" d="M117.6,75.9l-4.1,4.3v-6.3h0.9V78l4.1-4.3v6.3h-0.9V75.9z"/>
		<path class="st0" d="M132,76.9c0,1.8-1.3,3.1-3.1,3.1c-1.8,0-3.1-1.4-3.1-3.1c0-1.8,1.3-3.1,3.1-3.1C130.7,73.8,132,75.2,132,76.9
			z M131.1,76.9c0-1.3-0.9-2.3-2.2-2.3c-1.3,0-2.2,0.9-2.2,2.3c0,1.3,0.9,2.3,2.2,2.3C130.2,79.2,131.1,78.3,131.1,76.9z"/>
		<path class="st0" d="M140.1,76.3h2.6v-2.4h0.9v6h-0.9v-2.8h-2.6v2.8h-0.9v-6h0.9V76.3z"/>
		<path class="st0" d="M152.1,76.3h2.6v-2.4h0.9v6h-0.9v-2.8h-2.6v2.8h-0.9v-6h0.9V76.3z"/>
		<path class="st0" d="M163.1,73.9h0.9v2.4h0.7c0.4,0,1,0.1,1.5,0.5c0.3,0.3,0.6,0.8,0.6,1.3c0,0.5-0.2,1.1-0.7,1.5
			c-0.4,0.3-0.9,0.3-1.3,0.3h-1.6V73.9z M164,79.1h0.6c0.2,0,1.2,0,1.2-0.9c0-0.4-0.2-0.9-1.2-0.9H164V79.1z M168.3,73.9v6h-0.9v-6
			H168.3z"/>
		<path class="st0" d="M179.1,74.8h-2.4v1.5h2.3v0.9h-2.3v1.9h2.4v0.9h-3.3v-6h3.3V74.8z"/>
		<path class="st0" d="M202.4,75.3c-0.7-0.6-1.3-0.7-1.6-0.7c-1.3,0-2.2,1-2.2,2.3c0,1.3,0.9,2.3,2.2,2.3c0.7,0,1.3-0.4,1.6-0.7v1.1
			c-0.6,0.4-1.2,0.5-1.6,0.5c-1.1,0-1.8-0.5-2.1-0.8c-0.7-0.7-1-1.4-1-2.3c0-1.1,0.5-1.9,1-2.3c0.6-0.6,1.3-0.8,2.2-0.8
			c0.5,0,1.1,0.1,1.6,0.4V75.3z"/>
		<path class="st0" d="M213.6,75.9l-4.1,4.3v-6.3h0.9V78l4.1-4.3v6.3h-0.9V75.9z"/>
		<path class="st0" d="M226.5,75.3c-0.7-0.6-1.3-0.7-1.6-0.7c-1.3,0-2.2,1-2.2,2.3c0,1.3,0.9,2.3,2.2,2.3c0.7,0,1.3-0.4,1.6-0.7v1.1
			c-0.6,0.4-1.2,0.5-1.6,0.5c-1.1,0-1.8-0.5-2.1-0.8c-0.7-0.7-1-1.4-1-2.3c0-1.1,0.5-1.9,1-2.3c0.6-0.6,1.3-0.8,2.2-0.8
			c0.5,0,1.1,0.1,1.6,0.4V75.3z"/>
		<path class="st0" d="M235.4,74.8v5.1h-0.9v-5.1h-1.4v-0.9h3.7v0.9H235.4z"/>
		<path class="st0" d="M247,74.8h-2.4v1.5h2.3v0.9h-2.3v1.9h2.4v0.9h-3.3v-6h3.3V74.8z"/>
		<path class="st0" d="M254,79.9l1.3-6.5l2.1,4.7l2.1-4.7l1.1,6.5h-0.9l-0.6-3.6l-1.7,3.9l-1.7-3.9l-0.6,3.6H254z"/>
		<path class="st0" d="M268,73.9h0.9v2.4h0.7c0.4,0,1,0.1,1.5,0.5c0.3,0.3,0.6,0.8,0.6,1.3c0,0.5-0.2,1.1-0.7,1.5
			c-0.4,0.3-0.9,0.3-1.3,0.3H268V73.9z M268.9,79.1h0.6c0.2,0,1.2,0,1.2-0.9c0-0.4-0.2-0.9-1.2-0.9h-0.7V79.1z M273.2,73.9v6h-0.9
			v-6H273.2z"/>
	</g>
</g>
<g id="BW">
</g>
</svg>
