<svg width="50.000000000000014" height="50.000000000000014" xmlns="http://www.w3.org/2000/svg" fill="none">
 <title>cooler</title>
 <defs>
  <clipPath id="clip0_51_128">
   <rect width="50" height="50" fill="white" id="svg_1"/>
  </clipPath>
 </defs>
 <g>
  <title>Layer 1</title>
  <path id="svg_12" stroke-width="2" fill="none" d="m8.08112,49.21807l33.96858,0c4.02008,0 7.27899,-3.24505 7.27899,-7.24803l0,-33.82416c0,-4.00298 -3.2589,-7.24803 -7.27899,-7.24803l-33.96858,0c-4.02008,0 -7.27899,3.24505 -7.27899,7.24803l0,33.82416c0,4.00299 3.2589,7.24803 7.27899,7.24803z" stroke="#000000"/>
  <path fill="none" stroke="#000000" stroke-width="2" d="m-33.03105,10.84884l0.745,-1.30375l0.745,1.30375l-1.49,0z" id="svg_11"/>
  <path fill="none" stroke="#000000" stroke-width="2" d="m-45.77595,43.27008l0.745,-1.30375l0.745,1.30375l-1.49,0z" id="svg_13"/>
  <path fill="none" stroke="#000000" stroke-width="2" d="m-62.54556,32.09034l0.745,-1.30375l0.745,1.30375l-1.49,0z" id="svg_14"/>
  <path stroke="#000000" class="st0" d="m16.30747,37.99819c0.36004,0.24674 0.73155,0.47829 1.11645,0.69884c0.38322,0.2126 0.77386,0.41607 1.17813,0.60061c1.95198,0.89085 4.12917,1.39183 6.42972,1.39557c8.40298,-0.00561 15.20803,-6.66304 15.20995,-14.88372c0,-5.04552 -2.56424,-9.49744 -6.48734,-12.19081l-3.56904,4.98704c0.42913,0.29562 0.8298,0.62165 1.1994,0.98324c1.63426,1.60068 2.63333,3.78162 2.63548,6.22053c-0.00191,2.43891 -1.00097,4.61588 -2.63548,6.21866c-1.63451,1.59507 -3.86381,2.57433 -6.35298,2.57433c-1.36484,0 -2.64887,-0.2975 -3.79998,-0.82116c-0.24074,-0.10922 -0.47168,-0.2278 -0.69521,-0.35784c-0.22903,-0.12817 -0.44849,-0.26756 -0.65839,-0.41257c-0.43104,-0.29375 -0.83148,-0.62329 -1.2049,-0.983c-1.63044,-1.60279 -2.63166,-3.77998 -2.63166,-6.21866c0,-2.43891 1.00122,-4.61985 2.63166,-6.22053c1.08943,-1.06416 2.4447,-1.8514 3.96756,-2.25999l0,2.62344l6.041,-5.98127l-6.041,-5.98338l0,3.12091c-7.26717,1.12426 -12.82095,7.27534 -12.8231,14.70129c0.00239,5.04107 2.56663,9.49721 6.48973,12.18847l0,0" fill="#000000" id="svg_4"/>
 </g>
</svg>
