<?xml version="1.0" encoding="UTF-8" standalone="no"?>
<!-- Uploaded to: SVG Repo, www.svgrepo.com, Transformed by: SVG Repo Mixer Tools -->

<svg
   fill="#ffffff"
   height="666.66663"
   width="666.66663"
   version="1.0"
   id="Layer_1"
   viewBox="-2.4 -2.4 23.999999 23.999999"
   enable-background="new 0 0 24 24"
   xml:space="preserve"
   sodipodi:docname="calendar-time-date-schedule-svgrepo-com (1).svg"
   xmlns:inkscape="http://www.inkscape.org/namespaces/inkscape"
   xmlns:sodipodi="http://sodipodi.sourceforge.net/DTD/sodipodi-0.dtd"
   xmlns="http://www.w3.org/2000/svg"
   xmlns:svg="http://www.w3.org/2000/svg"><defs
   id="defs3" /><sodipodi:namedview
   id="namedview3"
   pagecolor="#ffffff"
   bordercolor="#000000"
   borderopacity="0.25"
   inkscape:showpageshadow="2"
   inkscape:pageopacity="0.0"
   inkscape:pagecheckerboard="0"
   inkscape:deskcolor="#d1d1d1" />&#10;&#10;&#10;&#10;&#10;&#10;<g
   id="SVGRepo_iconCarrier"
   style="fill:#ed6b06;fill-opacity:1"
   transform="translate(-2.3999999,-2.3999999)"> <g
   id="g3"
   style="fill:#ed6b06;fill-opacity:1"> <path
   d="M 21,13.6 V 4.5 C 21,3.7 20.3,3 19.5,3 H 17 V 1.5 C 17,0.7 16.3,0 15.5,0 h -1 C 13.7,0 13,0.7 13,1.5 V 3 H 8 V 1.5 C 8,0.7 7.3,0 6.5,0 h -1 C 4.7,0 4,0.7 4,1.5 V 3 H 1.5 C 0.7,3 0,3.7 0,4.5 v 16 C 0,21.3 0.7,22 1.5,22 h 12.8 c 1,1.2 2.5,2 4.2,2 3,0 5.5,-2.5 5.5,-5.5 0,-2.1 -1.2,-4 -3,-4.9 z M 13.6,16 H 11 v -4 h 4 v 2.3 c -0.6,0.4 -1,1 -1.4,1.7 z M 6,16 v -4 h 4 v 4 z m 4,1 v 4 H 6 V 17 Z M 15,7 v 4 H 11 V 7 Z m -5,4 H 6 V 7 h 4 z M 5,11 H 1 V 7 h 4 z m 0,1 v 4 H 1 v -4 z m 11,0 h 4 v 1.2 C 19.5,13.1 19,13 18.5,13 17.6,13 16.8,13.2 16,13.6 Z m 4,-1 H 16 V 7 h 4 z M 14,1.5 C 14,1.2 14.2,1 14.5,1 h 1 C 15.8,1 16,1.2 16,1.5 v 2 C 16,3.8 15.8,4 15.5,4 h -1 C 14.2,4 14,3.8 14,3.5 Z m -9,0 C 5,1.2 5.2,1 5.5,1 h 1 C 6.8,1 7,1.2 7,1.5 v 2 C 7,3.8 6.8,4 6.5,4 h -1 C 5.2,4 5,3.8 5,3.5 Z M 1.5,4 h 2.6 c 0.2,0.6 0.8,1 1.4,1 h 1 C 7.2,5 7.7,4.6 7.9,4 h 5.2 c 0.2,0.6 0.8,1 1.4,1 h 1 c 0.7,0 1.2,-0.4 1.4,-1 h 2.6 C 19.8,4 20,4.2 20,4.5 V 6 H 1 V 4.5 C 1,4.2 1.2,4 1.5,4 Z M 1,20.5 V 17 h 4 v 4 H 1.5 C 1.2,21 1,20.8 1,20.5 Z M 11,21 v -4 h 2.2 c -0.1,0.5 -0.2,1 -0.2,1.5 0,0.9 0.2,1.7 0.6,2.5 z m 7.5,2 C 16,23 14,21 14,18.5 14,16 16,14 18.5,14 21,14 23,16 23,18.5 23,21 21,23 18.5,23 Z"
   id="path1"
   style="fill:#ed6b06;fill-opacity:1" /> <g
   id="g2"
   style="fill:#ed6b06;fill-opacity:1"> <path
   d="m 17.5,21 c -0.1,0 -0.3,-0.1 -0.4,-0.1 l -2,-2 c -0.2,-0.2 -0.2,-0.5 0,-0.7 0.2,-0.2 0.5,-0.2 0.7,0 l 1.6,1.6 2.7,-3.5 c 0.2,-0.2 0.5,-0.3 0.7,-0.1 0.2,0.2 0.3,0.5 0.1,0.7 l -3,4 c -0.1,0 -0.2,0.1 -0.4,0.1 z"
   id="path2"
   style="fill:#ed6b06;fill-opacity:1" /> </g> </g> </g>&#10;&#10;</svg>
