<?xml version="1.0" encoding="UTF-8" standalone="no"?>
<!-- Uploaded to: SVG Repo, www.svgrepo.com, Transformed by: SVG Repo Mixer Tools -->

<svg
   width="691.40991"
   height="709.06824"
   viewBox="0 0 41.484595 42.544094"
   id="Layer_2"
   data-name="Layer 2"
   fill="#ffffff"
   stroke="#ffffff"
   stroke-width="1.584"
   version="1.1"
   sodipodi:docname="settings-svgrepo-com (1).svg"
   xmlns:inkscape="http://www.inkscape.org/namespaces/inkscape"
   xmlns:sodipodi="http://sodipodi.sourceforge.net/DTD/sodipodi-0.dtd"
   xmlns="http://www.w3.org/2000/svg"
   xmlns:svg="http://www.w3.org/2000/svg">
  <defs
     id="defs2" />
  <sodipodi:namedview
     id="namedview1"
     pagecolor="#ffffff"
     bordercolor="#000000"
     borderopacity="0.25"
     inkscape:showpageshadow="2"
     inkscape:pageopacity="0.0"
     inkscape:pagecheckerboard="0"
     inkscape:deskcolor="#d1d1d1" />
  <g
     id="SVGRepo_iconCarrier"
     style="fill:#ed6b06;fill-opacity:1"
     inkscape:export-filename="SVGRepo_iconCarrier.png"
     inkscape:export-xdpi="96"
     inkscape:export-ydpi="96"
     transform="translate(-3.2577009,-2.7279522)">
    <defs
       id="defs1">
      <style
         id="style1">.cls-1{fill:none;stroke:#ffffff;stroke-linecap:round;stroke-linejoin:round;}</style>
    </defs>
    <path
       class="cls-1"
       d="m 39.23,26 a 16.52,16.52 0 0 0 0.14,-2 16.52,16.52 0 0 0 -0.14,-2 l 4.33,-3.39 a 1,1 0 0 0 0.25,-1.31 l -4.1,-7.11 A 1,1 0 0 0 38.46,9.75 l -5.11,2.06 a 15.68,15.68 0 0 0 -3.46,-2 L 29.12,4.38 a 1,1 0 0 0 -1,-0.86 H 19.9 a 1,1 0 0 0 -1,0.86 l -0.77,5.43 a 15.36,15.36 0 0 0 -3.46,2 L 9.54,9.75 a 1,1 0 0 0 -1.25,0.44 l -4.1,7.11 a 1,1 0 0 0 0.25,1.31 L 8.76,22 a 16.66,16.66 0 0 0 -0.14,2 16.52,16.52 0 0 0 0.14,2 L 4.44,29.39 A 1,1 0 0 0 4.19,30.7 l 4.1,7.11 a 1,1 0 0 0 1.25,0.44 l 5.11,-2.06 a 15.68,15.68 0 0 0 3.46,2 l 0.77,5.43 a 1,1 0 0 0 1,0.86 h 8.2 a 1,1 0 0 0 1,-0.86 l 0.77,-5.43 a 15.36,15.36 0 0 0 3.46,-2 l 5.11,2.06 a 1,1 0 0 0 1.25,-0.44 l 4.1,-7.11 A 1,1 0 0 0 43.52,29.39 Z M 24,31.18 A 7.18,7.18 0 1 1 31.17,24 7.17,7.17 0 0 1 24,31.18 Z"
       id="path1"
       style="fill:#ed6b06;fill-opacity:1" />
  </g>
</svg>
