<?xml version="1.0" encoding="iso-8859-1"?>
<!-- Uploaded to: SVG Repo, www.svgrepo.com, Generator: SVG Repo Mixer Tools -->
<svg height="800px" width="800px" version="1.1" id="Layer_1" xmlns="http://www.w3.org/2000/svg" xmlns:xlink="http://www.w3.org/1999/xlink" 
	 viewBox="0 0 511.999 511.999" xml:space="preserve">
<path style="fill:#FFC850;" d="M508.412,260.779l-78.431,22.839l67.538,45.833c4.126,2.8,2.03,9.253-2.953,9.095l-81.577-2.595
	l49.998,64.565c3.05,3.94-0.937,9.421-5.624,7.731l-76.825-27.702l27.698,76.825c1.69,4.687-3.792,8.676-7.731,5.624l-64.56-50.002
	l2.594,81.574c0.158,4.985-6.295,7.08-9.095,2.953l-45.825-67.538l-22.838,78.431c-1.393,4.782-8.167,4.782-9.56,0l-22.839-78.431
	l-45.833,67.538c-2.8,4.126-9.253,2.03-9.095-2.953l2.595-81.577l-64.565,49.998c-3.94,3.05-9.421-0.937-7.731-5.624l27.702-76.825
	l-76.825,27.698c-4.687,1.69-8.676-3.792-5.624-7.731l50.002-64.56l-81.574,2.594c-4.985,0.158-7.079-6.295-2.953-9.095
	l67.538-45.825L3.587,260.781c-4.782-1.393-4.782-8.167,0-9.56l78.429-22.842l-67.538-45.833c-4.126-2.8-2.03-9.253,2.953-9.095
	l81.577,2.595L49.01,111.483c-3.05-3.94,0.937-9.421,5.624-7.731l76.825,27.702l-27.697-76.825c-1.69-4.687,3.792-8.676,7.731-5.624
	l64.56,50.002l-2.594-81.574c-0.158-4.985,6.295-7.079,9.095-2.953l45.825,67.538l22.838-78.431c1.393-4.782,8.167-4.782,9.56,0
	l22.839,78.431l45.833-67.538c2.8-4.126,9.253-2.03,9.095,2.953l-2.595,81.577l64.565-49.998c3.94-3.05,9.421,0.937,7.731,5.624
	l-27.702,76.825l76.825-27.698c4.687-1.69,8.676,3.792,5.624,7.731l-50.002,64.56l81.574-2.594c4.985-0.158,7.08,6.295,2.953,9.095
	l-67.538,45.825l78.431,22.838C513.194,252.612,513.194,259.387,508.412,260.779z"/>
<circle style="fill:#FFDC64;" cx="255.995" cy="255.996" r="159.305"/>
<circle style="fill:#FFF082;" cx="255.995" cy="255.996" r="129.436"/>
</svg>