<svg width="50.00000000000001" height="50.00000000000001" xmlns="http://www.w3.org/2000/svg" fill="none">
 <title>cooler</title>
 <defs>
  <clipPath id="clip0_51_128">
   <rect width="50" height="50" fill="white" id="svg_1"/>
  </clipPath>
 </defs>
 <g>
  <title>Layer 1</title>
  <path id="svg_12" stroke-width="2" fill="none" d="m8.02556,49.04214l33.96858,0c4.02008,0 7.27899,-3.24505 7.27899,-7.24803l0,-33.82416c0,-4.00298 -3.2589,-7.24803 -7.27899,-7.24803l-33.96858,0c-4.02008,0 -7.27899,3.24505 -7.27899,7.24803l0,33.82416c0,4.00299 3.2589,7.24803 7.27899,7.24803z" stroke="#ffffff"/>
  <path fill="none" stroke="#ffffff" stroke-width="2" d="m-33.03105,10.84884l0.745,-1.30375l0.745,1.30375l-1.49,0z" id="svg_11"/>
  <path fill="none" stroke="#ffffff" stroke-width="2" d="m-45.77595,43.27008l0.745,-1.30375l0.745,1.30375l-1.49,0z" id="svg_13"/>
  <path fill="none" stroke="#ffffff" stroke-width="2" d="m-62.54556,32.09034l0.745,-1.30375l0.745,1.30375l-1.49,0z" id="svg_14"/>
  <path id="svg_3" d="m37.95759,22.38685c2.30631,-2.61355 2.7699,-6.18014 1.51526,-9.17962l-4.63012,5.32178l-4.56416,-0.87463l-1.51233,-4.33342l4.61841,-5.30942c-3.17681,-0.78776 -6.67669,0.16328 -8.97284,2.76648c-2.42158,2.74441 -2.81788,6.54489 -1.31904,9.62834l-12.06882,13.67921c-1.28418,1.45434 -1.12774,3.66013 0.34781,4.92537c1.47555,1.26435 3.71305,1.11153 4.99679,-0.34282l12.05468,-13.66572c3.31829,1.05417 7.10157,0.14134 9.53435,-2.61555l0,0z" stroke="#ffffff" fill="#ffffff"/>
 </g>
</svg>