<svg width="50.000000000000014" height="50.000000000000014" xmlns="http://www.w3.org/2000/svg" fill="none">
 <title>cooler</title>
 <defs>
  <clipPath id="clip0_51_128">
   <rect width="50" height="50" fill="white" id="svg_1"/>
  </clipPath>
 </defs>
 <g>
  <title>Layer 1</title>
  <path id="svg_12" stroke-width="2" fill="none" d="m8.08112,49.21807l33.96858,0c4.02008,0 7.27899,-3.24505 7.27899,-7.24803l0,-33.82416c0,-4.00298 -3.2589,-7.24803 -7.27899,-7.24803l-33.96858,0c-4.02008,0 -7.27899,3.24505 -7.27899,7.24803l0,33.82416c0,4.00299 3.2589,7.24803 7.27899,7.24803z" stroke="#ffffff"/>
  <path fill="none" stroke="#ffffff" stroke-width="2" d="m-33.03105,10.84884l0.745,-1.30375l0.745,1.30375l-1.49,0z" id="svg_11"/>
  <path fill="none" stroke="#ffffff" stroke-width="2" d="m-45.77595,43.27008l0.745,-1.30375l0.745,1.30375l-1.49,0z" id="svg_13"/>
  <path fill="none" stroke="#ffffff" stroke-width="2" d="m-62.54556,32.09034l0.745,-1.30375l0.745,1.30375l-1.49,0z" id="svg_14"/>
  <path id="svg_6" d="m37.78226,25.95198l4.10923,-2.21709c-0.08078,-0.82146 -0.2369,-1.61832 -0.4322,-2.40168l-4.56477,-0.64483c-0.3951,-0.97092 -0.91684,-1.87143 -1.53013,-2.69804l1.74003,-4.36557c-0.57215,-0.56922 -1.19006,-1.08819 -1.84041,-1.56572l-3.87608,2.48232c-0.90895,-0.48761 -1.88825,-0.85796 -2.91628,-1.09582l-1.40076,-4.42688c-0.39727,-0.0306 -0.79442,-0.06293 -1.19956,-0.06293s-0.80117,0.03159 -1.19963,0.06293l-1.38688,4.38767c-1.05559,0.23023 -2.05651,0.60488 -2.98882,1.09852l-3.81572,-2.44581c-0.64953,0.47753 -1.26741,0.9965 -1.83951,1.56572l1.69214,4.24498c-0.65952,0.86227 -1.21168,1.81366 -1.6264,2.83903l-4.42066,0.62368c-0.19448,0.78226 -0.35142,1.57828 -0.43136,2.40158l3.96765,2.14147c0.04495,1.12728 0.22816,2.21979 0.55258,3.2486l-2.99298,3.37593c0.34816,0.73666 0.73579,1.45107 1.1842,2.12132l4.4065,-0.96502c0.72248,0.80191 1.54562,1.50452 2.45379,2.08555l-0.16702,4.59923c0.72369,0.33296 1.47562,0.61163 2.25051,0.83437l2.78774,-3.65547c0.49463,0.06442 0.99551,0.10781 1.50639,0.10781c0.55344,0 1.09468,-0.051 1.6272,-0.12564l2.80225,3.67575c0.7761,-0.22248 1.52689,-0.50113 2.25051,-0.83411l-0.17025,-4.68183c0.86561,-0.57167 1.65051,-1.2556 2.3425,-2.02777l4.52109,0.98962c0.44842,-0.67015 0.8361,-1.38379 1.18413,-2.12107l-3.08992,-3.48646c0.29682,-0.97449 0.46263,-2.0032 0.5109,-3.06433l0,0zm-6.82985,5.32565l-1.94826,1.29384l-1.19831,-1.87817c-0.62338,0.2446 -1.29452,0.39334 -2.002,0.39334c-3.08991,0 -5.594,-2.55548 -5.594,-5.70709c0,-3.15173 2.50408,-5.70622 5.594,-5.70622c3.0891,0 5.5941,2.55449 5.5941,5.70622c0,1.57495 -0.62542,2.99869 -1.63638,4.03169l1.19085,1.86639z" stroke="#ffffff" fill="#ffffff"/>
 </g>
</svg>