<!DOCTYPE svg PUBLIC "-//W3C//DTD SVG 1.1//EN" "http://www.w3.org/Graphics/SVG/1.1/DTD/svg11.dtd">
<!-- Uploaded to: SVG Repo, www.svgrepo.com, Transformed by: SVG Repo Mixer Tools -->
<svg width="800px" height="800px" viewBox="0 0 16 16" xmlns="http://www.w3.org/2000/svg" fill="#ffffff" stroke="#ffffff">
<g id="SVGRepo_bgCarrier" stroke-width="0"/>
<g id="SVGRepo_tracerCarrier" stroke-linecap="round" stroke-linejoin="round"/>
<g id="SVGRepo_iconCarrier">
<path fill-rule="evenodd" clip-rule="evenodd" d="M3.5 2h-1v5h1V2zm6.1 5H6.4L6 6.45v-1L6.4 5h3.2l.4.5v1l-.4.5zm-5 3H1.4L1 9.5v-1l.4-.5h3.2l.4.5v1l-.4.5zm3.9-8h-1v2h1V2zm-1 6h1v6h-1V8zm-4 3h-1v3h1v-3zm7.9 0h3.19l.4-.5v-.95l-.4-.5H11.4l-.4.5v.95l.4.5zm2.1-9h-1v6h1V2zm-1 10h1v2h-1v-2z"/>
</g>
</svg>