<svg width="116" height="100" viewBox="0 0 116 100" fill="none" xmlns="http://www.w3.org/2000/svg">
<path d="M60.0475 0.822093C59.3648 0.289351 58.5236 0 57.6576 0C56.7917 0 55.9505 0.289351 55.2678 0.822093L0 43.9207L4.77963 49.9657L11.5385 44.6957V92.3077C11.5427 94.3465 12.3544 96.3007 13.7961 97.7424C15.2378 99.1841 17.192 99.9958 19.2308 100H96.1541C98.1931 99.9962 100.147 99.1846 101.589 97.7428C103.031 96.301 103.843 94.3467 103.846 92.3077V44.7307L110.605 49.9999L115.385 43.9545L60.0475 0.822093ZM65.3848 92.3077H50.0001V61.5384H65.3848V92.3077ZM73.0771 92.3077V61.5384C73.0748 59.499 72.2636 57.5438 70.8215 56.1017C69.3794 54.6596 67.4242 53.8484 65.3848 53.8461H50.0001C47.9606 53.8481 46.0052 54.6592 44.5631 56.1013C43.1209 57.5435 42.3098 59.4989 42.3078 61.5384V92.3077H19.2308V38.6979L57.6924 8.73634L96.1541 38.7383V92.3077H73.0771Z" fill="#ed6c05"/>
</svg>
