<svg width="100" height="100" viewBox="0 0 100 100" fill="none" xmlns="http://www.w3.org/2000/svg">
<path d="M84.732 54.4108L84.4513 56.4366L86.0782 57.6757L96.1638 65.3575L86.7698 81.184L74.7232 76.4773L72.9136 75.7703L71.3565 76.9321C68.9237 78.7472 66.2601 80.254 63.43 81.4148L61.5864 82.171L61.2956 84.1423L59.4728 96.4999H40.556L38.717 84.138L38.4216 82.1525L36.5587 81.4048C33.7355 80.2719 31.0843 78.7761 28.6756 76.9593L27.117 75.7837L25.2978 76.4921L13.2445 81.1861L3.84132 65.3533L13.9267 57.6717L15.5517 56.434L15.2734 54.4105C15.0717 52.944 14.963 51.467 14.9479 49.9878C14.963 48.5087 15.0717 47.0317 15.2734 45.5652L15.5516 43.5422L13.9274 42.3045L3.84165 34.6189L13.2478 18.8022L25.2948 23.5067L27.0996 24.2115L28.6549 23.0562C31.0878 21.2491 33.7501 19.7497 36.5777 18.5955L38.4265 17.841L38.7177 15.8655L40.5405 3.50011H59.4572L61.2962 15.8698L61.5914 17.8553L63.4543 18.6032C66.2775 19.7364 68.9289 21.2322 71.3379 23.049L72.8994 24.2266L74.7208 23.5139L86.7663 18.8L96.1758 34.6307L86.0907 42.3121L84.4685 43.5477L84.7433 45.5682C84.9427 47.0337 85.0475 48.5097 85.0571 49.9878C85.0439 51.4672 84.9353 52.9444 84.732 54.4108ZM28.5177 49.9877V49.9919C28.5177 54.1677 29.7915 58.2413 32.166 61.697C34.5396 65.1515 37.9028 67.8293 41.8194 69.4064C45.7352 70.9833 50.0385 71.3937 54.1889 70.5896C58.3397 69.7855 62.1649 67.7998 65.1759 64.8692C68.1878 61.9376 70.2497 58.1911 71.0849 54.098C71.9202 50.0043 71.4875 45.7626 69.846 41.9139C68.2051 38.0664 65.4346 34.7944 61.9003 32.5005C58.3671 30.2072 54.2237 28.9903 49.9939 28.9931L49.9899 28.9932C44.3266 29.0033 38.8796 31.1962 34.8477 35.1205C30.8125 39.048 28.5244 44.3924 28.5177 49.9877Z" stroke="#ed6c05" stroke-width="7"/>
</svg>
