<svg width="108" height="100" viewBox="0 0 108 100" fill="none" xmlns="http://www.w3.org/2000/svg">
<path fill-rule="evenodd" clip-rule="evenodd" d="M64.2856 53.5713V60.7142H49.9999V92.857H10.7143C4.80606 92.857 0 88.0509 0 82.1427V10.7143C0 4.80606 4.80606 0 10.7143 0H82.1427C88.0509 0 92.857 4.80606 92.857 10.7143V35.7142H85.7141V28.5714H49.9999V53.5713H64.2856ZM7.14284 53.5713H42.8571V28.5714H7.14284V53.5713ZM82.1427 7.14284H10.7143C8.74463 7.14284 7.14284 8.74356 7.14284 10.7143V21.4285H85.7141V10.7143C85.7141 8.74356 84.1124 7.14284 82.1427 7.14284ZM10.7143 85.7141H42.8571V60.7142H7.14284V82.1427C7.14284 84.1134 8.74463 85.7141 10.7143 85.7141ZM95.382 51.0476L106.096 61.7618C107.491 63.1572 107.491 65.4172 106.096 66.8122L72.9077 100.001H57.1424V84.2368L90.3316 51.0476C91.7252 49.6526 93.9888 49.6526 95.382 51.0476ZM69.9485 92.8582L79.6174 83.1904L87.8063 75.0011L82.1424 69.3372L73.9531 77.5264L64.2853 87.1943V92.8582H69.9485ZM87.1927 64.2872L92.8566 69.9511L98.5198 64.2872L92.8566 58.6233L87.1927 64.2872Z" fill="#ed6c05"/>
</svg>
