<svg width="100" height="100" viewBox="0 0 100 100" fill="none" xmlns="http://www.w3.org/2000/svg">
<path d="M28.7857 56.7143C29.8853 56.9818 31.0113 57.1256 32.1429 57.1429C34.9799 57.1421 37.7524 56.2967 40.1071 54.7143L51.6071 64.9643C50.6961 66.6942 50.1615 68.5973 50.0384 70.5486C49.9153 72.4998 50.2065 74.455 50.8929 76.2857C51.6138 78.36 52.8032 80.2401 54.3687 81.7801C55.9343 83.32 57.8337 84.4784 59.9196 85.1651C62.0054 85.8518 64.2215 86.0483 66.3957 85.7395C68.5698 85.4307 70.6435 84.6249 72.4557 83.3845C74.2678 82.1442 75.7697 80.5028 76.8445 78.5878C77.9193 76.6728 78.5381 74.5358 78.653 72.3428C78.7678 70.1499 78.3755 67.9599 77.5066 65.9432C76.6377 63.9264 75.3155 62.1371 73.6429 60.7143L82.7143 42.5357C84.4849 42.9351 86.3178 42.9733 88.1035 42.648C89.8893 42.3228 91.591 41.6408 93.1071 40.6429C95.6818 39.0716 97.6931 36.7257 98.8528 33.9413C100.012 31.1569 100.261 28.0768 99.563 25.1425C98.865 22.2081 97.256 19.5699 94.9668 17.606C92.6775 15.6421 89.8253 14.4532 86.8189 14.2096C83.8125 13.966 80.8061 14.6802 78.2305 16.25C75.6549 17.8197 73.6422 20.1644 72.4809 22.9482C71.3195 25.7319 71.069 28.8118 71.7653 31.7465C72.4617 34.6813 74.069 37.3204 76.3571 39.2857L67.2857 57.4643C66.3005 57.2477 65.2945 57.1399 64.2857 57.1429C61.4487 57.1436 58.6762 57.989 56.3214 59.5714L44.8214 49.3214C45.7324 47.5915 46.2671 45.6884 46.3902 43.7372C46.5133 41.7859 46.2221 39.8307 45.5357 38C44.8201 35.9408 43.6427 34.0727 42.0937 32.5387C40.5447 31.0048 38.6652 29.8457 36.5991 29.1502C34.5331 28.4547 32.3352 28.2413 30.1739 28.5263C28.0126 28.8113 25.9453 29.5872 24.1301 30.7945C22.3149 32.0018 20.8001 33.6085 19.7017 35.4916C18.6034 37.3746 17.9505 39.4841 17.7932 41.6584C17.6358 43.8327 17.9782 46.0142 18.794 48.0358C19.6099 50.0573 20.8776 51.8654 22.5 53.3214L7.14286 82.1429V0H0V92.8571C0 94.7515 0.752549 96.5684 2.09209 97.9079C3.43164 99.2474 5.24845 100 7.14286 100H100V92.8571H9.53571L28.7857 56.7143ZM85.7143 21.4286C87.127 21.4286 88.508 21.8475 89.6826 22.6324C90.8573 23.4172 91.7728 24.5328 92.3134 25.838C92.8541 27.1432 92.9955 28.5794 92.7199 29.9649C92.4443 31.3505 91.764 32.6232 90.765 33.6222C89.7661 34.6211 88.4934 35.3014 87.1078 35.577C85.7222 35.8526 84.286 35.7112 82.9808 35.1706C81.6756 34.6299 80.5601 33.7144 79.7752 32.5398C78.9903 31.3651 78.5714 29.9842 78.5714 28.5714C78.5714 26.677 79.324 24.8602 80.6635 23.5207C82.0031 22.1811 83.8199 21.4286 85.7143 21.4286V21.4286ZM71.4286 71.4286C71.4286 72.8413 71.0096 74.2223 70.2248 75.3969C69.4399 76.5716 68.3244 77.4871 67.0192 78.0277C65.714 78.5683 64.2778 78.7098 62.8922 78.4342C61.5066 78.1586 60.2339 77.4783 59.235 76.4793C58.236 75.4804 57.5557 74.2077 57.2801 72.8221C57.0045 71.4365 57.1459 70.0003 57.6866 68.6951C58.2272 67.3899 59.1427 66.2744 60.3174 65.4895C61.492 64.7046 62.873 64.2857 64.2857 64.2857C66.1801 64.2857 67.9969 65.0383 69.3365 66.3778C70.676 67.7174 71.4286 69.5342 71.4286 71.4286ZM32.1429 35.7143C33.5556 35.7143 34.9366 36.1332 36.1112 36.9181C37.2859 37.7029 38.2014 38.8185 38.742 40.1237C39.2826 41.4289 39.4241 42.8651 39.1485 44.2506C38.8729 45.6362 38.1926 46.909 37.1936 47.9079C36.1947 48.9069 34.9219 49.5871 33.5364 49.8628C32.1508 50.1384 30.7146 49.9969 29.4094 49.4563C28.1042 48.9157 26.9887 48.0001 26.2038 46.8255C25.4189 45.6509 25 44.2699 25 42.8571C25 40.9627 25.7526 39.1459 27.0921 37.8064C28.4316 36.4668 30.2485 35.7143 32.1429 35.7143V35.7143Z" fill="white"/>
</svg>
